:SAMPLES-PER-SECOND 30
:FRAME-RANGE 1-2643
:FULLY-SPECIFIED
:DEGREES
1900
root  53.4723 37.8068 -26.8941 -177.9 -78.3487 -168.717
RightUpLeg  -6.01367 -11.1665 -0.852617
RightLeg  20.0832 1.03159 0.454576
RightFoot  -26.6309 1.28212 10.8752
RightToes  5.38607e-012 1.2921e-014 -6.02303e-014
Spine  9.51032 3.9906 15.9927
Spine1  2.24601 6.1073 -5.61886
HEad  -3.39018 19.1294 -15.935
LeftShoulder1  1.43555 -1.79339 -22.0747
LeftArm  -4.27945 2.70652 -53.2665
LeftForeArm  36.3709 7.78453 -12.8047
LeftHand  -0.0628761 3.80497 3.89745
RightShoulder  2.8541 6.1473 24.1509
RightArm  -13.3665 28.2085 74.2703
RightForeArm  70.5204 -5.57139 5.24844
RightHand  0.27062 -6.77034 -23.2502
LeftUpLeg  -41.0636 3.04183 -6.48137
LeftLeg  45.4133 9.78076 10.8566
LeftFoot  -14.4132 -0.00717201 -3.48809
LeftToes  -4.79707e-012 -5.93756e-011 -7.55542e-012
1901
root  51.8984 37.4526 -27.5932 178.649 -77.2712 -164.682
RightUpLeg  -2.78583 -10.9811 -0.133875
RightLeg  18.3803 1.79444 1.32128
RightFoot  -27.609 1.20582 9.73241
RightToes  5.38607e-012 1.2921e-014 -6.02303e-014
Spine  10.0565 4.68094 17.3968
Spine1  2.57835 7.11623 -6.59359
HEad  -4.72662 18.1775 -15.7478
LeftShoulder1  1.43363 -1.84496 -21.7356
LeftArm  -4.54447 2.74701 -53.5099
LeftForeArm  36.1581 7.78303 -12.7695
LeftHand  -0.0670824 3.96515 3.98843
RightShoulder  2.88087 6.45212 23.4468
RightArm  -11.0373 29.6283 77.5621
RightForeArm  71.574 -5.61747 5.78378
RightHand  0.331812 -7.01717 -23.973
LeftUpLeg  -44.1213 3.43188 -8.35879
LeftLeg  40.3997 12.0972 11.1859
LeftFoot  -13.9782 0.00163482 -3.56789
LeftToes  -4.79707e-012 -5.93756e-011 -7.55542e-012
1902
root  50.2052 37.0459 -28.2858 178.175 -75.5692 -163.639
RightUpLeg  0.292117 -9.42004 0.166927
RightLeg  17.0991 2.2179 1.59697
RightFoot  -28.4333 1.16916 9.05313
RightToes  5.38607e-012 1.2921e-014 -6.02303e-014
Spine  10.4851 5.38799 17.5155
Spine1  2.85383 8.00729 -7.22791
HEad  -5.4218 18.2447 -15.489
LeftShoulder1  1.45186 -1.99028 -21.2894
LeftArm  -5.08607 2.46421 -53.8705
LeftForeArm  36.2832 7.79742 -12.8911
LeftHand  -0.0659085 4.24213 4.7649
RightShoulder  3.01864 7.05722 23.0343
RightArm  -8.74638 31.2821 80.3688
RightForeArm  72.0768 -5.68077 6.29511
RightHand  0.414357 -7.36811 -24.469
LeftUpLeg  -46.9331 3.39994 -9.8454
LeftLeg  35.7998 13.9702 10.9386
LeftFoot  -12.9565 0.0381142 -2.80605
LeftToes  -4.79707e-012 -5.93756e-011 -7.55542e-012
1903
root  48.3676 36.5986 -28.9684 179.486 -73.5785 -164.312
RightUpLeg  2.54775 -8.49497 -0.170995
RightLeg  17.7428 4.27682 1.75327
RightFoot  -29.08 1.24669 9.24205
RightToes  5.38607e-012 1.2921e-014 -6.02303e-014
Spine  10.4459 5.88995 16.5861
Spine1  3.30995 8.57277 -7.85009
HEad  -6.08089 19.0591 -15.19
LeftShoulder1  1.56697 -2.61654 -20.2711
LeftArm  -6.0791 2.60123 -54.7598
LeftForeArm  39.4595 7.72179 -12.8091
LeftHand  -0.0447731 4.90376 5.6603
RightShoulder  3.05799 7.19852 23.0173
RightArm  -7.47563 32.3115 84.5919
RightForeArm  74.4484 -5.53817 6.00836
RightHand  0.499232 -7.69708 -25.138
LeftUpLeg  -49.4715 2.95585 -10.7491
LeftLeg  31.8598 12.5584 8.62868
LeftFoot  -12.5395 0.0454972 -2.83793
LeftToes  -4.79707e-012 -5.93756e-011 -7.55542e-012
1904
root  46.4127 36.1756 -29.6067 -178.306 -71.4706 -165.993
RightUpLeg  3.2048 -6.4513 -1.32235
RightLeg  22.0124 6.69024 2.75424
RightFoot  -29.0024 1.52195 11.0404
RightToes  5.38607e-012 1.2921e-014 -6.02303e-014
Spine  10.162 5.87237 13.4578
Spine1  3.70284 8.1652 -7.1877
HEad  -7.0761 21.5439 -14.959
LeftShoulder1  1.71134 -3.33854 -19.52
LeftArm  -5.74277 3.43437 -55.6189
LeftForeArm  42.6486 7.63407 -13.2002
LeftHand  -0.0326394 5.18007 5.74478
RightShoulder  3.18138 7.42922 23.5746
RightArm  -5.74166 32.9233 88.342
RightForeArm  79.3512 -5.34713 6.09678
RightHand  0.638799 -8.40887 -24.5641
LeftUpLeg  -51.3351 2.08073 -11.2419
LeftLeg  29.822 10.547 6.81152
LeftFoot  -12.711 0.0363229 -3.33447
LeftToes  -4.79707e-012 -5.93756e-011 -7.55542e-012
1905
root  44.3899 35.7142 -30.1469 -178.069 -69.1456 -166.075
RightUpLeg  1.4905 -4.18788 -3.15966
RightLeg  31.9369 10.8858 7.00978
RightFoot  -26.6756 1.64062 13.4834
RightToes  5.38607e-012 1.2921e-014 -6.02303e-014
Spine  10.1667 5.46664 9.82309
Spine1  4.41754 7.21546 -5.9623
HEad  -8.84147 24.6686 -14.6013
LeftShoulder1  1.83216 -3.88557 -19.2215
LeftArm  -5.20019 3.88731 -56.6352
LeftForeArm  44.927 7.48902 -13.5384
LeftHand  -0.020436 5.45638 5.62065
RightShoulder  3.28327 7.47096 24.4525
RightArm  -4.67035 31.9178 90.7031
RightForeArm  82.0141 -5.32017 6.64037
RightHand  0.661805 -8.63375 -23.7457
LeftUpLeg  -52.697 1.72542 -11.6874
LeftLeg  32.3748 12.3719 8.67301
LeftFoot  -13.7523 0.0853119 0.132548
LeftToes  -4.79707e-012 -5.93756e-011 -7.55542e-012
1906
root  42.2552 35.2457 -30.564 -179.268 -66.3728 -165.12
RightUpLeg  -3.49679 -2.19222 -6.51304
RightLeg  47.55 15.9258 17.5667
RightFoot  -17.6475 0.80745 16.7343
RightToes  5.38607e-012 1.2921e-014 -6.02303e-014
Spine  10.1338 4.7775 6.70452
Spine1  5.90505 6.16699 -4.96466
HEad  -10.6473 28.4537 -14.3793
LeftShoulder1  1.99607 -4.5427 -19.1754
LeftArm  -3.82633 3.58064 -57.6526
LeftForeArm  45.4652 7.2884 -14.0089
LeftHand  -0.00573727 5.8009 5.5341
RightShoulder  3.35066 7.48153 25.0786
RightArm  -4.92132 29.9527 91.6873
RightForeArm  82.7233 -5.35594 7.0541
RightHand  0.687632 -8.70496 -24.0998
LeftUpLeg  -52.7514 1.07095 -11.0481
LeftLeg  39.0811 16.4443 14.2035
LeftFoot  -15.0242 0.320373 7.14249
LeftToes  -4.79707e-012 -5.93756e-011 -7.55542e-012
1907
root  40.0236 34.6008 -30.9496 177.907 -63.8782 -163.117
RightUpLeg  -11.3376 1.944 -9.41426
RightLeg  64.0341 13.9785 28.1115
RightFoot  -3.23317 -1.41318 19.4508
RightToes  5.38607e-012 1.2921e-014 -6.02303e-014
Spine  11.4728 3.8826 4.69384
Spine1  5.42956 4.82227 -3.64664
HEad  -11.4638 32.1063 -14.3418
LeftShoulder1  2.12527 -5.15118 -18.8509
LeftArm  -2.3979 2.24377 -58.3923
LeftForeArm  45.3516 7.11623 -14.3306
LeftHand  -0.0128139 5.64761 5.39258
RightShoulder  3.35874 7.35868 25.5327
RightArm  -6.271 28.79 91.3789
RightForeArm  83.7345 -5.24197 6.62446
RightHand  0.661124 -8.56991 -24.161
LeftUpLeg  -53.0584 1.0782 -9.89613
LeftLeg  49.0999 15.9444 19.181
LeftFoot  -20.3207 0.656464 6.79445
LeftToes  -4.79707e-012 -5.93756e-011 -7.55542e-012
1908
root  37.8108 33.9536 -31.2369 175.621 -63.8682 -162.066
RightUpLeg  -18.3124 5.91889 -11.5859
RightLeg  74.3176 6.71081 24.7792
RightFoot  -1.17035 -1.70427 18.9008
RightToes  5.38607e-012 1.2921e-014 -6.02303e-014
Spine  13.0684 2.5121 3.03122
Spine1  5.33405 2.93973 -2.35617
HEad  -12.5886 34.108 -15.6673
LeftShoulder1  2.29106 -5.6794 -19.2483
LeftArm  -1.17973 -1.77456 -57.759
LeftForeArm  44.1771 7.09467 -14.4601
LeftHand  -0.0167121 5.55385 5.40243
RightShoulder  3.31129 7.17624 25.6313
RightArm  -7.85425 28.9876 89.4379
RightForeArm  82.4709 -5.17434 5.86575
RightHand  0.859198 -9.12588 -26.4469
LeftUpLeg  -51.216 0.768156 -10.9872
LeftLeg  55.1284 14.8213 22.0237
LeftFoot  -22.1036 1.13876 10.6407
LeftToes  -4.79707e-012 -5.93756e-011 -7.55542e-012
1909
root  35.4224 33.5292 -31.3563 171.569 -66.0043 -159.228
RightUpLeg  -24.8667 6.81122 -12.9844
RightLeg  80.3574 1.81895 11.3645
RightFoot  -5.64404 -0.60656 11.3798
RightToes  5.38607e-012 1.2921e-014 -6.02303e-014
Spine  14.9983 0.913911 3.59153
Spine1  4.61993 1.17406 -1.21154
HEad  -12.9233 34.0867 -16.9227
LeftShoulder1  2.51841 -6.65657 -19.0131
LeftArm  -2.68284 -7.08322 -57.5842
LeftForeArm  41.8488 7.52303 -13.8269
LeftHand  -0.0327103 5.18276 6.00137
RightShoulder  3.10218 6.76949 24.7876
RightArm  -10.1747 30.2476 85.9513
RightForeArm  79.8094 -5.07229 4.5393
RightHand  0.692388 -8.35907 -26.8279
LeftUpLeg  -47.1156 -0.546949 -12.1931
LeftLeg  58.748 13.9229 23.7184
LeftFoot  -26.2768 1.65523 11.3761
LeftToes  -4.79707e-012 -5.93756e-011 -7.55542e-012
1910
root  32.8452 33.3245 -31.4139 168.52 -68.5001 -157.016
RightUpLeg  -32.3684 7.04754 -14.3938
RightLeg  82.3859 0.0613457 -2.17869
RightFoot  -10.8989 -0.0830396 2.36498
RightToes  5.38607e-012 1.2921e-014 -6.02303e-014
Spine  16.075 -0.228525 3.9524
Spine1  3.52441 -0.130681 0.550399
HEad  -12.4974 33.5017 -17.3667
LeftShoulder1  2.73284 -7.81033 -18.2619
LeftArm  -3.94685 -11.9933 -57.2213
LeftForeArm  35.2336 7.81184 -12.8518
LeftHand  -0.0922651 4.04434 6.55293
RightShoulder  2.8589 6.21579 23.9756
RightArm  -12.8548 32.0959 81.6065
RightForeArm  77.5821 -4.91137 2.99954
RightHand  0.71475 -8.37998 -27.435
LeftUpLeg  -41.5155 -1.28841 -14.0408
LeftLeg  59.7785 13.3494 23.7684
LeftFoot  -30.7437 2.10339 11.1768
LeftToes  -4.79707e-012 -5.93756e-011 -7.55542e-012
